<svg width="40" height="40" viewBox="0 0 40 40" fill="none" xmlns="http://www.w3.org/2000/svg">
<circle cx="20" cy="20" r="20" fill="#2BC2F9"/>
<path d="M28.3274 29.3846C29.4605 28.6582 30.2741 27.467 30.4775 26.0432C30.8843 23.3992 29.0538 20.9294 26.4097 20.5517C23.7656 20.1449 21.2959 21.9754 20.9182 24.6195C20.5405 27.2636 22.3419 29.7333 24.986 30.111" stroke="white" stroke-miterlimit="10" stroke-linecap="round" stroke-linejoin="round"/>
<path d="M28.5894 26.625L28.1826 29.3853L31.001 29.7921" stroke="white" stroke-miterlimit="10" stroke-linecap="round" stroke-linejoin="round"/>
<path d="M9.23728 13.0266H7V24.5908C7 25.6949 7.87167 26.5666 8.97578 26.5666C10.0799 26.5666 10.9516 25.6949 10.9516 24.5908L10.9806 8H28.3269V19.3317" stroke="white" stroke-miterlimit="10" stroke-linecap="round" stroke-linejoin="round"/>
<path d="M14.2344 11.8936H24.9269" stroke="white" stroke-miterlimit="10" stroke-linecap="round" stroke-linejoin="round"/>
<path d="M14.2344 14.0439H24.9269" stroke="white" stroke-miterlimit="10" stroke-linecap="round" stroke-linejoin="round"/>
<path d="M14.2344 17.9082H24.9269" stroke="white" stroke-miterlimit="10" stroke-linecap="round" stroke-linejoin="round"/>
<path d="M14.2344 20.0293H21.4983" stroke="white" stroke-miterlimit="10" stroke-linecap="round" stroke-linejoin="round"/>
<path d="M14.2344 22.1211H19.6387" stroke="white" stroke-miterlimit="10" stroke-linecap="round" stroke-linejoin="round"/>
<path d="M14.2344 24.2422H19.232" stroke="white" stroke-miterlimit="10" stroke-linecap="round" stroke-linejoin="round"/>
<path d="M9.2373 26.5371H19.1453" stroke="white" stroke-miterlimit="10" stroke-linecap="round" stroke-linejoin="round"/>
</svg>
