<svg width="40" height="40" viewBox="0 0 40 40" fill="none" xmlns="http://www.w3.org/2000/svg">
<circle cx="20" cy="20" r="20" fill="#2BC2F9"/>
<path d="M13.9593 19.3368C14.9767 18.9041 15.4128 17.8945 15.4128 16.7406C15.4128 15.1539 14.1046 14 12.6511 14C11.0523 14 9.88952 15.2982 9.88952 16.7406C9.88952 17.8945 10.1802 18.9041 11.343 19.3368C9.30812 19.3368 8 21.0677 8 23.087C8 25.1063 8.43602 26.8372 10.4709 26.8372H14.8314C16.8663 26.8372 17.3023 25.1063 17.3023 23.087C17.3023 20.9234 15.9942 19.3368 13.9593 19.3368Z" stroke="white" stroke-miterlimit="10" stroke-linecap="round" stroke-linejoin="round"/>
<path d="M28.6565 19.3368C29.674 18.9041 30.11 17.8945 30.11 16.7406C30.11 15.1539 28.8019 14 27.3484 14C25.7496 14 24.5868 15.2982 24.5868 16.7406C24.5868 17.8945 24.8775 18.9041 26.0403 19.3368C24.0054 19.3368 22.6973 21.0677 22.6973 23.087C22.6973 25.1063 23.1333 26.8372 25.1682 26.8372H29.5286C31.5635 26.8372 31.9996 25.1063 31.9996 23.087C31.9996 20.9234 30.6914 19.3368 28.6565 19.3368Z" stroke="white" stroke-miterlimit="10" stroke-linecap="round" stroke-linejoin="round"/>
<path d="M23.6098 18.8184C23.8051 18.6231 23.8051 18.3066 23.6098 18.1113L20.4278 14.9293C20.2326 14.734 19.916 14.734 19.7207 14.9293C19.5255 15.1246 19.5255 15.4412 19.7207 15.6364L22.5492 18.4648L19.7207 21.2933C19.5255 21.4885 19.5255 21.8051 19.7207 22.0004C19.916 22.1956 20.2326 22.1956 20.4278 22.0004L23.6098 18.8184ZM16.5586 18.9648H23.2563V17.9648H16.5586V18.9648Z" fill="white"/>
</svg>
