<svg width="40" height="40" viewBox="0 0 40 40" fill="none" xmlns="http://www.w3.org/2000/svg">
<circle cx="20" cy="20" r="20" fill="#2BC2F9"/>
<path d="M25.3905 17.5933C25.8718 17.112 26.4172 16.8232 27.1552 16.8232C28.599 16.8232 29.7541 17.9783 29.7541 19.4222C29.7541 20.866 28.599 22.0211 27.1552 22.0211C26.4172 22.0211 25.8076 21.7003 25.3584 21.1869" stroke="white" stroke-miterlimit="10" stroke-linecap="round" stroke-linejoin="round"/>
<path d="M28.6631 30.7808C30.506 30.7808 32 25.6811 32 19.3904C32 13.0996 30.506 8 28.6631 8C26.8202 8 25.3262 13.0996 25.3262 19.3904C25.3262 25.6811 26.8202 30.7808 28.6631 30.7808Z" stroke="white" stroke-miterlimit="10" stroke-linecap="round" stroke-linejoin="round"/>
<path d="M15.7002 16.374V22.0532" stroke="white" stroke-miterlimit="10" stroke-linecap="round" stroke-linejoin="round"/>
<path d="M28.6631 30.7808C30.506 30.7808 32 25.6811 32 19.3904C32 13.0996 30.506 8 28.6631 8C26.8202 8 25.3262 13.0996 25.3262 19.3904C25.3262 25.6811 26.8202 30.7808 28.6631 30.7808Z" stroke="white" stroke-miterlimit="10" stroke-linecap="round" stroke-linejoin="round"/>
<path d="M27.5401 30.1068C27.5401 30.1068 23.3369 22.8234 16.5989 22.5026H9.70053C9.70053 22.5026 8.09626 22.5667 8 21.0587V17.6897C8.16043 15.9892 9.70053 16.2459 9.70053 16.2459H16.5989C23.3369 15.925 27.5401 8.6416 27.5401 8.6416" stroke="white" stroke-miterlimit="10" stroke-linecap="round" stroke-linejoin="round"/>
<path d="M15.7002 22.4068V16.7598" stroke="white" stroke-miterlimit="10" stroke-linecap="round" stroke-linejoin="round"/>
<path d="M18.1387 18.5884C18.1387 18.5884 21.1868 18.9092 23.0478 16.4707" stroke="white" stroke-miterlimit="10" stroke-linecap="round" stroke-linejoin="round"/>
<path d="M9.63672 22.5993L11.5619 30.2678C11.5619 30.2678 11.7223 31.6154 12.9415 31.6154C13.5832 31.6154 14.257 31.6154 14.7383 31.6154C15.1554 31.6154 15.733 31.6154 16.0217 31.3908C16.5672 30.9416 16.5672 30.3961 15.6688 29.0806C15.6688 29.0806 14.5458 27.9576 14.4175 27.348C14.225 26.4175 14.4175 23.8828 15.0592 22.5352" stroke="white" stroke-miterlimit="10" stroke-linecap="round" stroke-linejoin="round"/>
</svg>
