<svg width="40" height="40" viewBox="0 0 40 40" fill="none" xmlns="http://www.w3.org/2000/svg">
<circle cx="20" cy="20" r="20" fill="#2BC2F9"/>
<path d="M20 32C26.6274 32 32 26.6274 32 20C32 13.3726 26.6274 8 20 8C13.3726 8 8 13.3726 8 20C8 26.6274 13.3726 32 20 32Z" stroke="white" stroke-miterlimit="10" stroke-linecap="round" stroke-linejoin="round"/>
<path d="M27.3243 20C27.3243 21.0463 27.0954 22.0599 26.7031 22.9755L30.0055 23.4659C30.3652 22.3869 30.5941 21.2425 30.5941 20.0327C30.5941 18.7248 30.3652 17.4496 29.9074 16.2725L26.5723 16.7629C27.0627 17.7112 27.3243 18.8229 27.3243 20Z" stroke="white" stroke-miterlimit="10" stroke-linecap="round" stroke-linejoin="round"/>
<path d="M12.6433 20.0005C12.6433 18.8233 12.9376 17.7116 13.428 16.7307L10.0929 16.2402C9.63512 17.4173 9.40625 18.6599 9.40625 20.0005C9.40625 21.2103 9.60243 22.3547 9.9948 23.4337L13.2973 22.9432C12.8722 22.0604 12.6433 21.0468 12.6433 20.0005Z" stroke="white" stroke-miterlimit="10" stroke-linecap="round" stroke-linejoin="round"/>
<path d="M13.9185 24.1523L12.0547 26.997C13.6569 28.7954 15.8476 30.0706 18.3326 30.463L19.2808 27.324C17.0574 27.0951 15.1283 25.918 13.9185 24.1523Z" stroke="white" stroke-miterlimit="10" stroke-linecap="round" stroke-linejoin="round"/>
<path d="M20.5557 27.3245L21.5039 30.4962C23.9889 30.1365 26.2123 28.894 27.8472 27.0957L25.9835 24.251C24.7736 25.9839 22.8118 27.1611 20.5557 27.3245Z" stroke="white" stroke-miterlimit="10" stroke-linecap="round" stroke-linejoin="round"/>
<path d="M25.8858 15.6188L27.7496 12.7741C26.1147 11.0412 23.924 9.83135 21.4717 9.47168L20.5234 12.6433C22.7142 12.8395 24.6433 13.9512 25.8858 15.6188Z" stroke="white" stroke-miterlimit="10" stroke-linecap="round" stroke-linejoin="round"/>
<path d="M19.379 12.6756L18.4308 9.50391C15.9785 9.86358 13.7877 11.0734 12.1855 12.8391L14.0493 15.6837C15.2591 13.9835 17.1883 12.8391 19.379 12.6756Z" stroke="white" stroke-miterlimit="10" stroke-linecap="round" stroke-linejoin="round"/>
</svg>
