<svg width="24" height="24" viewBox="0 0 24 24" fill="none" xmlns="http://www.w3.org/2000/svg">
<path d="M19.4182 8.39999C19.4182 1.2 15.1636 0.109097 12.5454 6.65837e-06C12.5454 6.65837e-06 12.2182 6.65837e-06 12 6.65837e-06C11.7818 6.65837e-06 11.4545 6.65837e-06 11.4545 6.65837e-06C8.83636 0.109097 4.58182 1.2 4.58182 8.39999C4.58182 16.8 -6.65838e-06 19.4181 -6.65838e-06 19.4181H24C24 19.4181 19.4182 16.8 19.4182 8.39999Z" fill="#2BC2F9"/>
<path d="M12.6485 24.001C14.394 24.001 15.9213 22.5828 16.2486 20.6191H8.93945C9.37582 22.4737 10.794 24.001 12.6485 24.001Z" fill="#2BC2F9"/>
</svg>
