<svg width="26" height="24" viewBox="0 0 26 24" fill="none" xmlns="http://www.w3.org/2000/svg">
<path d="M25.5667 23.0494V6.14941H20.3667V23.0494H19.0667V9.61608H13.8667V23.0494H12.5667V13.0827H7.36667V23.0494H6.06667V16.9827H0.866667V23.0494H0.433333C0.194133 23.0494 0 23.2431 0 23.4827C0 23.7224 0.194133 23.9161 0.433333 23.9161H0.866667H6.06667H7.36667H12.5667H13.8667H19.0667H20.3667H25.5667C25.8059 23.9161 26 23.7224 26 23.4827C26 23.2431 25.8059 23.0494 25.5667 23.0494ZM1.73333 23.0494V17.8494H5.2V23.0494H1.73333ZM8.23333 23.0494V13.9494H11.7V23.0494H8.23333ZM14.7333 23.0494V10.4827H18.2V23.0494H14.7333ZM21.2333 23.0494V7.01608H24.7V23.0494H21.2333Z" fill="white"/>
<path d="M3.47965 11.0594C3.55288 11.0594 3.62785 11.0408 3.69588 11.0013L19.4124 1.92735L18.4288 4.08968C18.3295 4.30765 18.4257 4.56461 18.6437 4.66341C18.7018 4.69028 18.7629 4.70241 18.8231 4.70241C18.9878 4.70241 19.1451 4.60795 19.2179 4.44848L20.7614 1.05548C20.7662 1.04465 20.7653 1.03295 20.7692 1.02168C20.7774 0.998712 20.7839 0.976612 20.7883 0.952346C20.7904 0.940212 20.7974 0.930246 20.7982 0.917679C20.7987 0.912479 20.7965 0.908146 20.7969 0.902946C20.7978 0.886479 20.7961 0.871312 20.7952 0.854846C20.7939 0.831012 20.79 0.808479 20.7848 0.784646C20.7813 0.768179 20.7805 0.751279 20.7748 0.735246C20.7696 0.719646 20.7605 0.706646 20.7536 0.691479C20.748 0.681512 20.748 0.669812 20.7419 0.659412C20.7358 0.649012 20.7254 0.642946 20.7185 0.632979C20.7094 0.619546 20.7025 0.605246 20.6916 0.593112C20.6804 0.580112 20.6661 0.571012 20.6531 0.559312C20.6353 0.543279 20.6175 0.528546 20.5976 0.515546C20.5842 0.506879 20.572 0.497346 20.5573 0.489979C20.5525 0.487812 20.5499 0.483479 20.5452 0.481312C20.5343 0.476546 20.5226 0.477412 20.5118 0.473512C20.488 0.464846 20.4646 0.458779 20.4399 0.454446C20.4286 0.452279 20.4195 0.445779 20.4078 0.444912L16.6976 0.0852458C16.4571 0.0609791 16.2474 0.236912 16.2244 0.474379C16.201 0.712712 16.3756 0.924612 16.6135 0.947579L18.9778 1.17681L3.26255 10.2508C3.05498 10.3704 2.98435 10.6356 3.10395 10.8427C3.18411 10.9818 3.32971 11.0594 3.47965 11.0594Z" fill="white"/>
</svg>
