<svg width="23" height="23" viewBox="0 0 23 23" fill="none" xmlns="http://www.w3.org/2000/svg">
<path d="M22.9427 1.64258H7.837C7.80835 1.64258 7.77969 1.66646 7.77969 1.69989V3.04665C7.77969 3.0753 7.80357 3.10396 7.837 3.10396H22.9427C22.9713 3.10396 23 3.08008 23 3.04665V1.69989C23 1.66646 22.9761 1.64258 22.9427 1.64258Z" fill="white"/>
<path d="M7.837 5.53999H15.3588C15.3875 5.53999 15.4161 5.51612 15.4161 5.48269V4.13592C15.4161 4.10727 15.3922 4.07861 15.3588 4.07861H7.837C7.80835 4.07861 7.77969 4.10249 7.77969 4.13592V5.48269C7.77969 5.51612 7.80357 5.53999 7.837 5.53999Z" fill="white"/>
<path d="M22.9427 9.55127H7.837C7.80835 9.55127 7.77969 9.57515 7.77969 9.60858V10.9553C7.77969 10.984 7.80357 11.0126 7.837 11.0126H22.9427C22.9713 11.0126 23 10.9888 23 10.9553V9.60858C23 9.57515 22.9761 9.55127 22.9427 9.55127Z" fill="white"/>
<path d="M7.837 13.4482H15.3588C15.3875 13.4482 15.4161 13.4243 15.4161 13.3909V12.0441C15.4161 12.0155 15.3922 11.9868 15.3588 11.9868H7.837C7.80835 11.9868 7.77969 12.0107 7.77969 12.0441V13.3909C7.77969 13.4243 7.80357 13.4482 7.837 13.4482Z" fill="white"/>
<path d="M22.9427 17.46H7.837C7.80835 17.46 7.77969 17.4838 7.77969 17.5173V18.864C7.77969 18.8927 7.80357 18.9213 7.837 18.9213H22.9427C22.9713 18.9213 23 18.8975 23 18.864V17.5173C23 17.4838 22.9761 17.46 22.9427 17.46Z" fill="white"/>
<path d="M15.3588 19.9004H7.837C7.80835 19.9004 7.77969 19.9243 7.77969 19.9577V21.3045C7.77969 21.3331 7.80357 21.3618 7.837 21.3618H15.3588C15.3875 21.3618 15.4161 21.3379 15.4161 21.3045V19.9577C15.4113 19.9243 15.3875 19.9004 15.3588 19.9004Z" fill="white"/>
<path d="M2.47861 3.77273L1.26557 2.55014L0 3.81094L1.21304 5.02876L2.47384 6.29433L3.73941 5.03831L6.63351 2.15376L5.37749 0.888184L2.47861 3.77273Z" fill="white"/>
<path d="M2.47861 11.6814L1.26557 10.4588L0 11.7196L1.21304 12.9374L2.47384 14.203L3.73941 12.947L6.63351 10.0624L5.37749 8.79688L2.47861 11.6814Z" fill="white"/>
<path d="M2.47861 19.5901L1.26557 18.3675L0 19.6283L1.21304 20.8461L2.47384 22.1117L3.73941 20.8509L6.63351 17.9711L5.37749 16.7056L2.47861 19.5901Z" fill="white"/>
</svg>
