<svg width="50" height="28" viewBox="0 0 50 28" fill="none" xmlns="http://www.w3.org/2000/svg">
<path d="M42.5829 17.8038C44.2242 19.4062 45.9564 20.9137 47.4285 22.6778C48.0787 23.4617 48.6943 24.2705 49.1653 25.1803C49.8327 26.4735 49.2282 27.8965 48.0687 27.9737L40.8605 27.9705C39.0014 28.1247 37.5184 27.3763 36.2714 26.1052C35.2734 25.0887 34.3491 24.0068 33.3895 22.956C32.9961 22.5265 32.5844 22.1224 32.0925 21.8029C31.1085 21.1642 30.2544 21.3597 29.692 22.386C29.1194 23.4299 28.9894 24.5857 28.9331 25.749C28.8559 27.4463 28.3429 27.8926 26.6379 27.9703C22.9942 28.1421 19.5362 27.5909 16.3237 25.7527C13.4914 24.1323 11.2953 21.8447 9.38361 19.2549C5.66184 14.2121 2.81153 8.67074 0.249885 2.97419C-0.326747 1.69076 0.0949758 1.00183 1.51109 0.977384C3.86256 0.931675 6.21373 0.934961 8.56799 0.974099C9.52373 0.988111 10.1564 1.53624 10.5255 2.43911C11.7977 5.56734 13.3544 8.54356 15.3084 11.3023C15.8288 12.0367 16.3594 12.7712 17.1149 13.2881C17.9508 13.8605 18.5873 13.6708 18.9805 12.7396C19.23 12.1492 19.3393 11.5132 19.3956 10.8809C19.5819 8.70533 19.6064 6.53342 19.2797 4.36547C19.0791 3.01246 18.317 2.13654 16.9669 1.88055C16.278 1.75 16.3805 1.49362 16.7141 1.1004C17.2934 0.422206 17.8384 0 18.9247 0H27.0709C28.3534 0.253092 28.6382 0.829241 28.8138 2.11963L28.8208 11.1684C28.8067 11.6679 29.0703 13.1504 29.9701 13.481C30.6902 13.7164 31.1649 13.1403 31.597 12.6837C33.5475 10.6136 34.9395 8.16716 36.1831 5.63393C36.735 4.51999 37.2096 3.36325 37.6695 2.20738C38.0102 1.34973 38.5449 0.927713 39.511 0.946364L47.3513 0.953322C47.5839 0.953322 47.8191 0.956705 48.0442 0.995263C49.3653 1.22043 49.7274 1.78875 49.3194 3.07885C48.6764 5.10291 47.4255 6.7897 46.2023 8.48423C44.8948 10.2934 43.4964 12.0407 42.1998 13.8605C41.0085 15.5227 41.1031 16.3603 42.5829 17.8038Z" fill="#436EAB"/>
</svg>
