<svg width="24" height="24" viewBox="0 0 20 20" fill="none" xmlns="http://www.w3.org/2000/svg">
<path d="M16.1811 6.99968C16.1811 0.999956 12.6358 0.0909104 10.4541 5.54839e-06C10.4541 5.54839e-06 10.1814 5.54839e-06 9.99955 5.54839e-06C9.81774 5.54839e-06 9.54502 5.54839e-06 9.54502 5.54839e-06C7.3633 0.0909104 3.81802 0.999956 3.81802 6.99968C3.81802 13.9993 -5.5484e-06 16.1811 -5.5484e-06 16.1811H19.9991C19.9991 16.1811 16.1811 13.9993 16.1811 6.99968Z" fill="#C4C4C4"/>
<path d="M10.5404 19.9999C11.9948 19.9999 13.2675 18.8182 13.5402 17.1819H7.44958C7.81321 18.7273 8.99496 19.9999 10.5404 19.9999Z" fill="#C4C4C4"/>
</svg>
