<svg width="36" height="22" viewBox="0 0 36 22" fill="none" xmlns="http://www.w3.org/2000/svg">
<path d="M20.3717 9.45806C21.9717 8.77227 22.6575 7.17213 22.6575 5.34337C22.6575 2.82882 20.6003 1 18.3145 1C15.8001 1 13.9715 3.05742 13.9715 5.34337C13.9715 7.17213 14.4287 8.77227 16.2573 9.45806C13.0572 9.45806 11 12.2012 11 15.4016C11 18.6019 11.6857 21.3451 14.8858 21.3451H21.7432C24.9433 21.3451 25.629 18.6019 25.629 15.4016C25.629 11.9726 23.5718 9.45806 20.3717 9.45806Z" stroke="#272B46" stroke-miterlimit="10" stroke-linecap="round" stroke-linejoin="round"/>
<path d="M24.4854 19.9735C24.9425 20.6593 25.6282 21.1165 26.7711 21.1165H32.0284C34.5428 21.1165 35 19.0592 35 16.7732C35 14.2587 33.6285 12.4298 31.1141 12.4298C32.257 11.9727 32.7142 10.8297 32.7142 9.45813C32.7142 7.62937 31.3427 6.25781 29.514 6.25781C27.6854 6.25781 26.314 7.62937 26.314 9.45813C26.314 10.8297 26.7711 11.9727 27.914 12.4298C26.9997 12.4298 26.0854 12.6585 25.3997 13.3443" stroke="#272B46" stroke-miterlimit="10" stroke-linecap="round" stroke-linejoin="round"/>
<path d="M11.5146 19.9735C11.0575 20.6593 10.3718 21.1165 9.22886 21.1165H3.97158C1.45721 21.1165 1.00001 19.0592 1.00001 16.7732C1.00001 14.2587 2.37151 12.4298 4.88588 12.4298C3.74299 11.9727 3.2858 10.8297 3.2858 9.45813C3.2858 7.62937 4.65733 6.25781 6.48596 6.25781C8.31459 6.25781 9.68605 7.62937 9.68605 9.45813C9.68605 10.8297 9.22886 11.9727 8.08597 12.4298C9.00028 12.4298 9.91461 12.6585 10.6003 13.3443" stroke="#272B46" stroke-miterlimit="10" stroke-linecap="round" stroke-linejoin="round"/>
</svg>
