<svg width="56" height="44" viewBox="0 0 56 44" fill="none" xmlns="http://www.w3.org/2000/svg">
<path d="M36.2312 29.1227C36.2312 31.4549 34.2727 33.3685 31.8857 33.3685H24.174C21.7871 33.3685 19.8285 31.4549 19.8285 29.1227V27.3288H0.120846V39.9463C0.120846 41.8001 1.71216 43.3549 3.60948 43.3549H52.5115C54.4088 43.3549 56.0001 41.8001 56.0001 39.9463V27.3288H36.2924V29.1227H36.2312Z" fill="white" fill-opacity="0.8"/>
<path d="M52.4518 8.19244H46.6374H41.6799V8.13264C41.6799 3.64772 37.9465 1.82492e-06 33.3562 1.82492e-06H22.5843C17.994 1.82492e-06 14.2605 3.64772 14.2605 8.13264V8.19244H12.8528H3.48862C1.5913 8.19244 7.47119e-06 9.74721 7.47119e-06 11.601V26.0125H21.1154V29.1818C21.1154 30.7964 22.4619 32.0522 24.0532 32.0522H31.7649C33.4174 32.0522 34.7027 30.7366 34.7027 29.1818V26.0125H55.818V11.601C55.9405 9.74721 54.3491 8.19244 52.4518 8.19244ZM32.3769 29.122C32.3769 29.421 32.1321 29.6004 31.8873 29.6004H24.1756C23.8696 29.6004 23.6859 29.3612 23.6859 29.122V25.9527H32.3769V29.122ZM37.5181 8.13264L18.5448 8.19244V8.13264C18.5448 5.92008 20.3809 4.12612 22.6455 4.12612H33.4174C35.6819 4.12612 37.5181 5.92008 37.5181 8.13264Z" fill="white" fill-opacity="0.8"/>
</svg>
