<svg width="24" height="24" viewBox="0 0 24 24" fill="none" xmlns="http://www.w3.org/2000/svg">
<path d="M17.8898 6.22205C16.5755 6.22205 15.5063 7.29127 15.5063 8.60547C15.5063 9.91966 16.5755 10.9889 17.8898 10.9889C19.204 10.9889 20.2732 9.91971 20.2732 8.60547C20.2732 7.29118 19.204 6.22205 17.8898 6.22205ZM17.8898 10.064C17.0855 10.064 16.4313 9.4097 16.4313 8.60547C16.4313 7.80124 17.0855 7.14698 17.8898 7.14698C18.694 7.14698 19.3483 7.80124 19.3483 8.60547C19.3483 9.40961 18.694 10.064 17.8898 10.064Z" fill="#868686"/>
<path d="M17.9059 21.0267C17.8944 20.9985 17.88 20.9716 17.8634 20.9467C17.8467 20.9212 17.8273 20.8976 17.806 20.8764C17.7848 20.8551 17.7612 20.8357 17.7357 20.819C17.7108 20.8024 17.6839 20.788 17.6557 20.7765C17.628 20.7649 17.5988 20.7557 17.5693 20.7501C17.5096 20.7381 17.4485 20.7381 17.3889 20.7501C17.3593 20.7557 17.3302 20.7649 17.3024 20.7765C17.2742 20.788 17.2474 20.8024 17.2224 20.819C17.197 20.8357 17.1734 20.8551 17.1521 20.8764C17.1308 20.8976 17.1114 20.9212 17.0948 20.9467C17.0781 20.9716 17.0638 20.9985 17.0522 21.0267C17.0406 21.0544 17.0314 21.0835 17.0259 21.1131C17.0198 21.1427 17.0166 21.1733 17.0166 21.2033C17.0166 21.2334 17.0198 21.2639 17.0259 21.2935C17.0314 21.3231 17.0406 21.3522 17.0522 21.38C17.0638 21.4082 17.0781 21.435 17.0948 21.46C17.1114 21.4854 17.1308 21.509 17.1521 21.5303C17.1627 21.5409 17.1739 21.551 17.1855 21.5606C17.1973 21.5702 17.2096 21.5793 17.2224 21.5876C17.2474 21.6043 17.2742 21.6186 17.3024 21.6302C17.3302 21.6417 17.3593 21.651 17.3889 21.6565C17.4185 21.6626 17.449 21.6658 17.4791 21.6658C17.5091 21.6658 17.5397 21.6626 17.5693 21.6565C17.5988 21.651 17.628 21.6417 17.6557 21.6302C17.6839 21.6186 17.7108 21.6043 17.7357 21.5876C17.7485 21.5793 17.7608 21.5702 17.7726 21.5606C17.7843 21.551 17.7954 21.5409 17.806 21.5303C17.8273 21.509 17.8467 21.4854 17.8634 21.46C17.88 21.435 17.8944 21.4082 17.9059 21.38C17.9175 21.3522 17.9267 21.3231 17.9328 21.2935C17.9388 21.2639 17.9415 21.2334 17.9415 21.2033C17.9415 21.1733 17.9388 21.1427 17.9328 21.1131C17.9267 21.0835 17.9175 21.0544 17.9059 21.0267Z" fill="#868686"/>
<path d="M10.6276 2.72527C10.616 2.69752 10.6017 2.6707 10.5851 2.64526C10.5684 2.62029 10.549 2.59624 10.5277 2.57497C10.5064 2.5537 10.4829 2.53427 10.4574 2.51762C10.4324 2.50097 10.4056 2.48664 10.3774 2.47508C10.3497 2.46351 10.3205 2.45473 10.2909 2.44872C10.2313 2.43669 10.1702 2.43669 10.1106 2.44872C10.081 2.45473 10.0518 2.46351 10.0236 2.47508C9.99588 2.48664 9.96905 2.50097 9.94408 2.51762C9.91864 2.53427 9.89506 2.5537 9.87378 2.57497C9.85251 2.59624 9.83309 2.62029 9.81598 2.64526C9.79933 2.6707 9.78545 2.69752 9.77389 2.72527C9.76233 2.75302 9.75308 2.78215 9.74753 2.81175C9.74152 2.84181 9.73828 2.87187 9.73828 2.9024C9.73828 2.93246 9.74152 2.96252 9.74753 2.99258C9.75308 3.02218 9.76233 3.05131 9.77389 3.07906C9.78545 3.10681 9.79933 3.13363 9.81598 3.15907C9.83309 3.18404 9.85251 3.20809 9.87378 3.22936C9.89506 3.25063 9.91864 3.27006 9.94408 3.28671C9.96905 3.30336 9.99588 3.31769 10.0236 3.32925C10.0518 3.34082 10.081 3.3496 10.1106 3.35562C10.1402 3.36163 10.1707 3.36486 10.2007 3.36486C10.2308 3.36486 10.2613 3.36163 10.2909 3.35562C10.3205 3.3496 10.3497 3.34082 10.3774 3.32925C10.4056 3.31769 10.4324 3.30336 10.4574 3.28671C10.4829 3.27006 10.5064 3.25063 10.5277 3.22936C10.549 3.20809 10.5684 3.18404 10.5851 3.15907C10.6017 3.13363 10.616 3.10681 10.6276 3.07906C10.6392 3.05131 10.6484 3.02218 10.654 2.99258C10.66 2.96252 10.6632 2.93246 10.6632 2.9024C10.6632 2.87187 10.66 2.84181 10.654 2.81175C10.6484 2.78215 10.6392 2.75302 10.6276 2.72527Z" fill="#868686"/>
<path d="M21.4161 2.4417C21.1388 1.26939 20.0842 0.394165 18.8283 0.394165H4.31817C2.11451 0.394119 0.321655 2.18697 0.321655 4.39063V18.9008C0.321655 20.3419 1.47399 21.5181 2.90556 21.5585C3.18285 22.7308 4.23746 23.606 5.49334 23.606H21.3404C22.8069 23.606 24 22.4129 24 20.9464V17.4567V5.09936C24 3.65831 22.8477 2.48207 21.4161 2.4417ZM23.0751 20.9465C23.0751 21.903 22.2969 22.6812 21.3404 22.6812H5.49334C4.75293 22.6812 4.11972 22.2148 3.87124 21.5605C3.79867 21.3695 3.75863 21.1626 3.75863 20.9465V20.6356V18.493L9.06429 9.49688C9.22583 9.223 9.5139 9.06308 9.82995 9.06817C10.1479 9.07363 10.4285 9.24354 10.5805 9.52282L12.8649 13.7175L16.1855 19.8148C16.2694 19.9689 16.4282 20.0562 16.5921 20.0562C16.6668 20.0562 16.7426 20.038 16.8128 19.9998C17.0371 19.8776 17.12 19.5967 16.9978 19.3724L15.9203 17.3937C16.3934 17.4156 16.8587 17.2624 17.2293 16.955L19.3091 15.2297C19.6426 14.953 20.1351 14.9651 20.4546 15.258L20.5631 15.3575L21.4881 16.2054L23.0751 17.6602V20.9465ZM23.0751 16.4054L21.488 14.9506L20.5631 14.2463C19.9605 13.9942 19.2439 14.0819 18.7185 14.5178L16.6387 16.243C16.41 16.4328 16.1113 16.5095 15.8194 16.4534C15.5275 16.3974 15.2786 16.2154 15.1364 15.9544L13.6772 13.2751L12.8624 11.7789V11.7789L11.3929 9.08038C11.0794 8.50484 10.501 8.15452 9.84577 8.14333C9.19068 8.13306 8.60053 8.46247 8.2676 9.02696L3.75858 16.6723V5.09936C3.75858 4.14284 4.53677 3.36464 5.4933 3.36464H8.35098C8.6064 3.36464 8.81345 3.1576 8.81345 2.90218C8.81345 2.64675 8.6064 2.43971 8.35098 2.43971H5.4933C4.02676 2.43971 2.83364 3.63283 2.83364 5.09936V18.3667V20.6288C1.94603 20.5535 1.24659 19.8076 1.24659 18.9008V4.39063C1.24659 2.69693 2.62451 1.31905 4.31817 1.31905H18.8283C19.5687 1.31905 20.202 1.78545 20.4504 2.43975H12.0507C11.7953 2.43975 11.5883 2.6468 11.5883 2.90222C11.5883 3.15764 11.7953 3.36469 12.0507 3.36469H20.563L21.488 3.37144C22.3756 3.44664 23.0751 4.1926 23.0751 5.09936V16.4054Z" fill="#868686"/>
</svg>
