<svg width="24" height="24" viewBox="0 0 24 24" fill="none" xmlns="http://www.w3.org/2000/svg">
<path d="M17.8419 12.1562C18.5782 14.7022 16.6761 17.63 13.4855 18.6484C10.2949 19.6668 7.10429 18.3938 6.30664 15.8479" stroke="#272B46" stroke-miterlimit="10" stroke-linecap="round" stroke-linejoin="round"/>
<path d="M13.8392 8.24654C14.3573 8.08074 14.6478 7.51062 14.4879 6.97315C14.3281 6.43568 13.7785 6.13441 13.2604 6.30022C12.7423 6.46602 12.4518 7.03612 12.6117 7.57359C12.7715 8.11105 13.3211 8.41235 13.8392 8.24654Z" fill="#272B46"/>
<path d="M7.51697 10.2697C8.03509 10.1039 8.32553 9.53376 8.16569 8.9963C8.00586 8.45883 7.45626 8.15754 6.93814 8.32334C6.42002 8.48915 6.12958 9.05927 6.28941 9.59674C6.44925 10.1342 6.99885 10.4355 7.51697 10.2697Z" fill="#272B46"/>
<circle cx="12" cy="12" r="11.5" stroke="#272B46"/>
</svg>
