<svg width="18" height="24" viewBox="0 0 18 24" fill="none" xmlns="http://www.w3.org/2000/svg">
<path d="M2.26821 6.85441C2.52074 3.30335 5.44085 0.5 8.968 0.5C12.4987 0.5 15.4548 3.30667 15.7107 6.85441H14.7632C14.5129 3.84584 12.0254 1.45971 8.98961 1.45971C5.95378 1.45971 3.46634 3.84584 3.21604 6.85441H2.26821Z" stroke="#272B46"/>
<path d="M6.32854 15.0155C6.32854 15.9468 6.78897 16.7824 7.51705 17.2635V19.3533C7.51705 20.171 8.16428 20.8442 8.98947 20.8442C9.81466 20.8442 10.4619 20.171 10.4619 19.3533V17.2635C11.19 16.7824 11.6504 15.9468 11.6504 15.0155C11.6504 13.5372 10.4629 12.3136 8.98947 12.3136C7.516 12.3136 6.32854 13.5372 6.32854 15.0155ZM2.44185 9.68045H15.5587C16.6135 9.68045 17.5006 10.5707 17.5006 11.6686V21.5112C17.5006 22.6091 16.6135 23.4994 15.5587 23.4994H2.44185C1.38703 23.4994 0.5 22.6091 0.5 21.5112V11.6686C0.5 10.5707 1.38703 9.68045 2.44185 9.68045Z" stroke="#272B46"/>
</svg>
