<svg width="22" height="26" viewBox="0 0 22 26" fill="none" xmlns="http://www.w3.org/2000/svg">
<path d="M6.29993 4.20197H3.01172V7.48171H6.29993V4.20197Z" stroke="#272B46" stroke-miterlimit="10"/>
<path d="M8.27271 4.20175H15.7776" stroke="#272B46" stroke-miterlimit="10"/>
<path d="M8.27271 5.86133H15.7776" stroke="#272B46" stroke-miterlimit="10"/>
<path d="M8.27271 7.48212H15.7776" stroke="#272B46" stroke-miterlimit="10"/>
<path d="M6.29993 10.2597H3.01172V13.5395H6.29993V10.2597Z" stroke="#272B46" stroke-miterlimit="10"/>
<path d="M8.27271 10.2596H15.7776" stroke="#272B46" stroke-miterlimit="10"/>
<path d="M8.27271 11.9192H15.7776" stroke="#272B46" stroke-miterlimit="10"/>
<path d="M20.033 14.7749V5.1672L15.5068 1H1V20.9486H8.35012" stroke="#272B46" stroke-miterlimit="10"/>
<path d="M13.3021 24.9996C16.0582 24.9996 18.2925 22.771 18.2925 20.022C18.2925 17.2731 16.0582 15.0446 13.3021 15.0446C10.546 15.0446 8.31177 17.2731 8.31177 20.022C8.31177 22.771 10.546 24.9996 13.3021 24.9996Z" stroke="#272B46" stroke-miterlimit="10" stroke-linecap="round" stroke-linejoin="round"/>
<path d="M14.6169 15.0449C15.2746 14.2346 16.2804 13.733 17.4023 13.733C19.4139 13.733 20.9999 15.3535 20.9999 17.3214C20.9999 19.0577 19.762 20.524 18.1373 20.8327" stroke="#272B46" stroke-miterlimit="10" stroke-linecap="round" stroke-linejoin="round"/>
<path d="M13.1086 18.1696L12.2962 18.594L12.1802 18.131L13.186 17.5908H13.6889V22.1053H13.1086V18.1696Z" fill="white"/>
</svg>
