<svg width="24" height="24" viewBox="0 0 26 23" fill="none" xmlns="http://www.w3.org/2000/svg">
<path d="M18.909 20.83C18.909 21.3231 18.3447 21.7229 17.6485 21.7229H1.26057C0.564342 21.7229 0 21.3231 0 20.83V9.22203C0 8.72883 0.564342 8.3291 1.26057 8.3291H17.6485C18.3447 8.3291 18.909 8.72894 18.909 9.22203V20.83Z" fill="#A1A1A1"/>
<path d="M4.72719 7.87882C6.46772 7.87882 7.87869 6.46784 7.87869 4.72731C7.87869 2.98678 6.46772 1.57581 4.72719 1.57581C2.98666 1.57581 1.57568 2.98678 1.57568 4.72731C1.57568 6.46784 2.98666 7.87882 4.72719 7.87882Z" fill="#A1A1A1"/>
<path d="M13.394 7.8788C15.5696 7.8788 17.3334 6.11507 17.3334 3.9394C17.3334 1.76373 15.5696 0 13.394 0C11.2183 0 9.45459 1.76373 9.45459 3.9394C9.45459 6.11507 11.2183 7.8788 13.394 7.8788Z" fill="#A1A1A1"/>
<path d="M26 22.117C26 22.117 25.895 22.9049 25.1595 22.9049C24.4241 22.9049 19.6969 18.4952 19.6969 17.915V12.1372C19.6969 11.557 24.3192 7.14722 25.1595 7.14722C26 7.14722 26 7.93511 26 7.93511V22.117Z" fill="#A1A1A1"/>
</svg>
