<svg width="26" height="22" viewBox="0 0 26 22" fill="none" xmlns="http://www.w3.org/2000/svg">
<path d="M10.3717 9.45806C11.9717 8.77227 12.6575 7.17213 12.6575 5.34337C12.6575 2.82882 10.6003 1 8.31448 1C5.80011 1 3.9715 3.05742 3.9715 5.34337C3.9715 7.17213 4.42865 8.77227 6.25728 9.45806C3.05718 9.45806 1 12.2012 1 15.4016C1 18.6019 1.68569 21.3451 4.8858 21.3451H11.7432C14.9433 21.3451 15.629 18.6019 15.629 15.4016C15.629 11.9726 13.5718 9.45806 10.3717 9.45806Z" stroke="white" stroke-miterlimit="10" stroke-linecap="round" stroke-linejoin="round"/>
<path d="M14.4854 19.9735C14.9425 20.6593 15.6282 21.1165 16.7711 21.1165H22.0284C24.5428 21.1165 25 19.0592 25 16.7732C25 14.2587 23.6285 12.4298 21.1141 12.4298C22.257 11.9727 22.7142 10.8297 22.7142 9.45813C22.7142 7.62937 21.3427 6.25781 19.514 6.25781C17.6854 6.25781 16.314 7.62937 16.314 9.45813C16.314 10.8297 16.7711 11.9727 17.914 12.4298C16.9997 12.4298 16.0854 12.6585 15.3997 13.3443" stroke="white" stroke-miterlimit="10" stroke-linecap="round" stroke-linejoin="round"/>
</svg>
