<svg width="24" height="48" viewBox="0 0 24 48" fill="none" xmlns="http://www.w3.org/2000/svg">
<path d="M23.9483 11.8042L12.0579 0L0 11.8042V35.8042L12.0579 48L23.9483 35.8042V11.8042ZM12.0579 2.34964L21.8828 12.0839L12.0021 21.7622L2.17712 12.0839L12.0579 2.34964ZM12.0021 26.4056L14.3467 28.8112L11.9462 34.014L9.60165 28.8112L12.0021 26.4056ZM11.8904 24.0559L8.87595 27.1888L3.79601 16.0559L11.8904 24.0559ZM7.59201 28.4196L1.67471 34.4615V15.4965L7.59201 28.4196ZM12.0021 45.6503L2.56789 35.972L8.37354 30.0979L11.2205 36.2517H12.8394L15.6864 30.042L21.4921 35.972L12.0021 45.6503ZM22.2736 34.4615L16.3563 28.4196L22.2736 15.4405V34.4615ZM15.1282 27.1329L12.0579 24L20.2081 16.0559L15.1282 27.1329Z" fill="#2BC2F9"/>
</svg>
