<svg width="24" height="23" viewBox="0 0 24 23" fill="none" xmlns="http://www.w3.org/2000/svg">
<path d="M22.5939 18.9181H1.40607C1.79888 18.531 2.25327 18.0115 2.70591 17.3379C3.90809 15.549 5.08182 12.6969 5.08182 8.39999C5.08182 4.90191 6.1112 2.9872 7.36084 1.92133C8.62434 0.843637 10.2044 0.553744 11.4651 0.500007H11.4653H11.4657H11.4661H11.4665H11.4669H11.4673H11.4677H11.4682H11.4686H11.469H11.4695H11.4699H11.4704H11.4708H11.4713H11.4718H11.4723H11.4727H11.4732H11.4737H11.4742H11.4747H11.4753H11.4758H11.4763H11.4768H11.4774H11.4779H11.4785H11.479H11.4796H11.4802H11.4807H11.4813H11.4819H11.4825H11.4831H11.4837H11.4843H11.4849H11.4856H11.4862H11.4868H11.4874H11.4881H11.4887H11.4894H11.4901H11.4907H11.4914H11.4921H11.4928H11.4934H11.4941H11.4948H11.4955H11.4962H11.497H11.4977H11.4984H11.4991H11.4999H11.5006H11.5013H11.5021H11.5029H11.5036H11.5044H11.5052H11.5059H11.5067H11.5075H11.5083H11.5091H11.5099H11.5107H11.5115H11.5123H11.5131H11.514H11.5148H11.5156H11.5165H11.5173H11.5182H11.519H11.5199H11.5208H11.5216H11.5225H11.5234H11.5243H11.5251H11.526H11.5269H11.5278H11.5287H11.5297H11.5306H11.5315H11.5324H11.5333H11.5343H11.5352H11.5362H11.5371H11.5381H11.539H11.54H11.5409H11.5419H11.5429H11.5439H11.5448H11.5458H11.5468H11.5478H11.5488H11.5498H11.5508H11.5518H11.5528H11.5538H11.5549H11.5559H11.5569H11.558H11.559H11.56H11.5611H11.5621H11.5632H11.5642H11.5653H11.5664H11.5674H11.5685H11.5696H11.5707H11.5718H11.5728H11.5739H11.575H11.5761H11.5772H11.5783H11.5795H11.5806H11.5817H11.5828H11.5839H11.5851H11.5862H11.5873H11.5885H11.5896H11.5907H11.5919H11.593H11.5942H11.5954H11.5965H11.5977H11.5989H11.6H11.6012H11.6024H11.6036H11.6047H11.6059H11.6071H11.6083H11.6095H11.6107H11.6119H11.6131H11.6143H11.6155H11.6167H11.618H11.6192H11.6204H11.6216H11.6229H11.6241H11.6253H11.6266H11.6278H11.629H11.6303H11.6315H11.6328H11.634H11.6353H11.6366H11.6378H11.6391H11.6404H11.6416H11.6429H11.6442H11.6454H11.6467H11.648H11.6493H11.6506H11.6519H11.6532H11.6545H11.6558H11.6571H11.6584H11.6597H11.661H11.6623H11.6636H11.6649H11.6662H11.6675H11.6688H11.6702H11.6715H11.6728H11.6741H11.6755H11.6768H11.6781H11.6795H11.6808H11.6822H11.6835H11.6848H11.6862H11.6875H11.6889H11.6902H11.6916H11.6929H11.6943H11.6957H11.697H11.6984H11.6997H11.7011H11.7025H11.7038H11.7052H11.7066H11.708H11.7093H11.7107H11.7121H11.7135H11.7148H11.7162H11.7176H11.719H11.7204H11.7218H11.7232H11.7246H11.7259H11.7273H11.7287H11.7301H11.7315H11.7329H11.7343H11.7357H11.7371H11.7385H11.7399H11.7413H11.7428H11.7442H11.7456H11.747H11.7484H11.7498H11.7512H11.7526H11.754H11.7555H11.7569H11.7583H11.7597H11.7611H11.7626H11.764H11.7654H11.7668H11.7682H11.7697H11.7711H11.7725H11.774H11.7754H11.7768H11.7782H11.7797H11.7811H11.7825H11.784H11.7854H11.7868H11.7882H11.7897H11.7911H11.7925H11.794H11.7954H11.7969H11.7983H11.7997H11.8012H11.8026H11.804H11.8055H11.8069H11.8083H11.8098H11.8112H11.8127H11.8141H11.8155H11.817H11.8184H11.8198H11.8213H11.8227H11.8242H11.8256H11.827H11.8285H11.8299H11.8314H11.8328H11.8342H11.8357H11.8371H11.8385H11.84H11.8414H11.8428H11.8443H11.8457H11.8472H11.8486H11.85H11.8515H11.8529H11.8543H11.8558H11.8572H11.8586H11.8601H11.8615H11.8629H11.8644H11.8658H11.8672H11.8686H11.8701H11.8715H11.8729H11.8743H11.8758H11.8772H11.8786H11.88H11.8815H11.8829H11.8843H11.8857H11.8871H11.8886H11.89H11.8914H11.8928H11.8942H11.8956H11.8971H11.8985H11.8999H11.9013H11.9027H11.9041H11.9055H11.9069H11.9083H11.9097H11.9111H11.9125H11.9139H11.9153H11.9167H11.9181H11.9195H11.9209H11.9223H11.9237H11.9251H11.9264H11.9278H11.9292H11.9306H11.932H11.9334H11.9347H11.9361H11.9375H11.9389H11.9402H11.9416H11.943H11.9443H11.9457H11.9471H11.9484H11.9498H11.9511H11.9525H11.9539H11.9552H11.9566H11.9579H11.9593H11.9606H11.9619H11.9633H11.9646H11.966H11.9673H11.9686H11.97H11.9713H11.9726H11.974H11.9753H11.9766H11.9779H11.9792H11.9805H11.9819H11.9832H11.9845H11.9858H11.9871H11.9884H11.9897H11.991H11.9923H11.9936H11.9949H11.9961H11.9974H11.9987H12H12.0013H12.0026H12.0038H12.0051H12.0064H12.0077H12.009H12.0103H12.0116H12.0129H12.0142H12.0155H12.0168H12.0181H12.0194H12.0208H12.0221H12.0234H12.0247H12.026H12.0274H12.0287H12.03H12.0314H12.0327H12.034H12.0354H12.0367H12.038H12.0394H12.0407H12.0421H12.0434H12.0448H12.0461H12.0475H12.0488H12.0502H12.0516H12.0529H12.0543H12.0556H12.057H12.0584H12.0598H12.0611H12.0625H12.0639H12.0653H12.0666H12.068H12.0694H12.0708H12.0722H12.0735H12.0749H12.0763H12.0777H12.0791H12.0805H12.0819H12.0833H12.0847H12.0861H12.0875H12.0889H12.0903H12.0917H12.0931H12.0945H12.0959H12.0973H12.0987H12.1001H12.1015H12.1029H12.1043H12.1058H12.1072H12.1086H12.11H12.1114H12.1128H12.1143H12.1157H12.1171H12.1185H12.1199H12.1214H12.1228H12.1242H12.1256H12.1271H12.1285H12.1299H12.1314H12.1328H12.1342H12.1356H12.1371H12.1385H12.1399H12.1414H12.1428H12.1442H12.1457H12.1471H12.1485H12.15H12.1514H12.1528H12.1543H12.1557H12.1571H12.1586H12.16H12.1615H12.1629H12.1643H12.1658H12.1672H12.1686H12.1701H12.1715H12.173H12.1744H12.1758H12.1773H12.1787H12.1801H12.1816H12.183H12.1845H12.1859H12.1873H12.1888H12.1902H12.1916H12.1931H12.1945H12.196H12.1974H12.1988H12.2003H12.2017H12.2031H12.2046H12.206H12.2074H12.2089H12.2103H12.2117H12.2132H12.2146H12.216H12.2175H12.2189H12.2203H12.2218H12.2232H12.2246H12.226H12.2275H12.2289H12.2303H12.2317H12.2332H12.2346H12.236H12.2374H12.2389H12.2403H12.2417H12.2431H12.2445H12.2459H12.2474H12.2488H12.2502H12.2516H12.253H12.2544H12.2558H12.2572H12.2586H12.26H12.2615H12.2629H12.2643H12.2657H12.2671H12.2685H12.2699H12.2713H12.2726H12.274H12.2754H12.2768H12.2782H12.2796H12.281H12.2824H12.2838H12.2851H12.2865H12.2879H12.2893H12.2907H12.292H12.2934H12.2948H12.2961H12.2975H12.2989H12.3003H12.3016H12.303H12.3043H12.3057H12.3071H12.3084H12.3098H12.3111H12.3125H12.3138H12.3152H12.3165H12.3178H12.3192H12.3205H12.3218H12.3232H12.3245H12.3258H12.3272H12.3285H12.3298H12.3311H12.3325H12.3338H12.3351H12.3364H12.3377H12.339H12.3403H12.3416H12.3429H12.3442H12.3455H12.3468H12.3481H12.3494H12.3507H12.352H12.3533H12.3545H12.3558H12.3571H12.3584H12.3596H12.3609H12.3622H12.3634H12.3647H12.3659H12.3672H12.3684H12.3697H12.3709H12.3722H12.3734H12.3747H12.3759H12.3771H12.3784H12.3796H12.3808H12.382H12.3832H12.3845H12.3857H12.3869H12.3881H12.3893H12.3905H12.3917H12.3929H12.3941H12.3953H12.3964H12.3976H12.3988H12.4H12.4011H12.4023H12.4035H12.4046H12.4058H12.4069H12.4081H12.4092H12.4104H12.4115H12.4127H12.4138H12.4149H12.4161H12.4172H12.4183H12.4194H12.4205H12.4216H12.4228H12.4239H12.425H12.426H12.4271H12.4282H12.4293H12.4304H12.4315H12.4325H12.4336H12.4347H12.4357H12.4368H12.4378H12.4389H12.4399H12.441H12.442H12.4431H12.4441H12.4451H12.4461H12.4472H12.4482H12.4492H12.4502H12.4512H12.4522H12.4532H12.4542H12.4552H12.4561H12.4571H12.4581H12.4591H12.46H12.461H12.4619H12.4629H12.4638H12.4648H12.4657H12.4666H12.4676H12.4685H12.4694H12.4703H12.4712H12.4722H12.4731H12.474H12.4748H12.4757H12.4766H12.4775H12.4784H12.4792H12.4801H12.481H12.4818H12.4827H12.4835H12.4844H12.4852H12.486H12.4868H12.4877H12.4885H12.4893H12.4901H12.4909H12.4917H12.4925H12.4933H12.4941H12.4948H12.4956H12.4964H12.4971H12.4979H12.4986H12.4994H12.5001H12.5009H12.5016H12.5023H12.503H12.5037H12.5045H12.5052H12.5059H12.5066H12.5072H12.5079H12.5086H12.5093H12.5099H12.5106H12.5112H12.5119H12.5125H12.5132H12.5138H12.5144H12.5151H12.5157H12.5163H12.5169H12.5175H12.5181H12.5187H12.5192H12.5198H12.5204H12.5209H12.5215H12.5221H12.5226H12.5231H12.5237H12.5242H12.5247H12.5252H12.5258H12.5263H12.5268H12.5272H12.5277H12.5282H12.5287H12.5292H12.5296H12.5301H12.5305H12.531H12.5314H12.5318H12.5322H12.5327H12.5331H12.5335H12.5339H12.5343H12.5347H12.5349C13.7956 0.553744 15.3757 0.843637 16.6392 1.92133C17.8888 2.9872 18.9182 4.90191 18.9182 8.39999C18.9182 12.6969 20.0919 15.549 21.2941 17.3379C21.7467 18.0115 22.2011 18.531 22.5939 18.9181Z" stroke="#C4C4C4"/>
<path d="M14.675 19.5C14.2109 20.9423 13.0014 21.8818 11.7091 21.8818C10.3532 21.8818 9.20865 20.895 8.67519 19.5H14.675Z" stroke="#C4C4C4"/>
</svg>
