<svg width="26" height="26" viewBox="0 0 26 26" fill="none" xmlns="http://www.w3.org/2000/svg">
<path d="M12.9998 17.7054C15.5988 17.7054 17.7057 15.5984 17.7057 12.9992C17.7057 10.4 15.5988 8.29297 12.9998 8.29297C10.4008 8.29297 8.29395 10.4 8.29395 12.9992C8.29395 15.5984 10.4008 17.7054 12.9998 17.7054Z" stroke="white" stroke-miterlimit="10" stroke-linecap="round" stroke-linejoin="round"/>
<path d="M25 15.1187V10.8831L21.9411 10.4124C21.7058 9.70651 21.4706 9.23592 21.2353 8.52998L23.1176 5.94155L20.0588 2.88253L17.4706 4.76499C17 4.52968 16.2941 4.2944 15.5882 4.05909L15.1176 1H10.8824L10.4118 4.05909C9.70587 4.2944 9.23531 4.52968 8.52943 4.76499L5.94118 2.88253L2.88232 5.94155L4.76472 8.52998C4.52942 9.23592 4.05879 9.70651 4.05879 10.4124L1 10.8831V15.1187L3.82355 15.5893C4.05885 16.2952 4.29413 17.0012 4.76472 17.7071L3.11763 20.0602L6.17649 23.1192L8.52943 21.4721C9.23531 21.9427 9.94118 22.178 10.6471 22.4133L11.1176 25.2371H15.3529L15.8235 22.4133C16.5294 22.178 17.2353 21.9427 17.9412 21.4721L20.2941 23.1192L23.3529 20.0602L21.7058 17.7071C21.9411 17.0012 22.4118 16.2952 22.4118 15.5893L25 15.1187Z" stroke="white" stroke-miterlimit="10" stroke-linecap="round" stroke-linejoin="round"/>
</svg>
