<svg width="43" height="86" viewBox="0 0 43 86" fill="none" xmlns="http://www.w3.org/2000/svg">
<path d="M43 21.1492L21.6504 0L0 21.1492V64.1492L21.6504 86L43 64.1492V21.1492ZM21.6504 4.20977L39.2914 21.6503L21.5501 38.9907L3.90909 21.6503L21.6504 4.20977ZM21.5501 47.31L25.7599 51.6201L21.4499 60.9417L17.2401 51.6201L21.5501 47.31ZM21.3497 43.1002L15.9371 48.7133L6.81586 28.7669L21.3497 43.1002ZM13.6317 50.9184L3.00699 61.7436V27.7646L13.6317 50.9184ZM21.5501 81.7902L4.61073 64.4499L15.035 53.9254L20.1469 64.951H23.0536L28.1655 53.8252L38.5897 64.4499L21.5501 81.7902ZM39.993 61.7436L29.3683 50.9184L39.993 27.6643V61.7436ZM27.1632 48.6131L21.6504 43L36.2844 28.7669L27.1632 48.6131Z" fill="white"/>
</svg>
