<svg width="1000" height="297" viewBox="0 0 1000 297" fill="none" xmlns="http://www.w3.org/2000/svg">
<path d="M147.829 72.8654L74.4316 0L0 72.8654V221.014L74.4316 296.297L147.829 221.014V72.8654ZM74.4316 14.504L135.079 74.5921L74.0869 134.335L13.439 74.5921L74.4316 14.504ZM74.0869 162.998L88.5597 177.847L73.7423 209.963L59.2695 177.847L74.0869 162.998ZM73.3978 148.494L54.7899 167.832L23.4322 99.1108L73.3978 148.494ZM46.8643 175.43L10.3377 212.726V95.6575L46.8643 175.43ZM74.0869 281.793L15.8512 222.05L51.6886 185.79L69.2627 223.776H79.2558L96.8299 185.444L132.667 222.05L74.0869 281.793ZM137.492 212.726L100.965 175.43L137.492 95.3121V212.726ZM93.384 167.487L74.4316 148.148L124.742 99.1108L93.384 167.487Z" fill="#2BC2F9"/>
<path d="M315.297 102.915H327.013V190.975H314.952V125.016L315.641 128.815L293.932 178.888H285.317L263.608 130.196L264.297 125.016V190.975H252.237V102.569H263.953L289.797 160.931L315.297 102.915Z" fill="black"/>
<path d="M361.818 187.871C356.994 185.108 353.548 181.309 350.791 176.475C348.034 171.64 347 165.769 347 159.553V134.689C347 128.128 348.379 122.603 350.791 117.768C353.203 112.933 356.994 109.135 361.818 106.372C366.642 103.609 371.811 102.228 378.014 102.228C384.216 102.228 389.73 103.609 394.209 106.372C398.689 109.135 402.479 112.933 405.236 117.768C407.993 122.603 409.027 128.473 409.027 134.689V159.553C409.027 166.115 407.648 171.64 405.236 176.475C402.824 181.309 399.034 185.108 394.209 187.871C389.385 190.634 384.216 192.015 378.014 192.015C371.811 192.015 366.297 190.634 361.818 187.871ZM387.662 177.165C390.419 175.439 392.486 173.367 394.209 170.259C395.932 167.151 396.621 163.697 396.621 159.899V133.999C396.621 130.2 395.932 126.401 394.209 123.639C392.486 120.876 390.419 118.459 387.662 116.732C384.905 115.005 381.804 114.315 378.014 114.315C374.223 114.315 371.122 115.005 368.365 116.732C365.608 118.459 363.541 120.531 361.818 123.639C360.095 126.747 359.406 130.2 359.406 133.999V159.899C359.406 163.697 360.095 167.496 361.818 170.259C363.541 173.021 365.608 175.439 368.365 177.165C371.122 178.892 374.223 179.583 378.014 179.583C381.804 179.583 384.561 178.892 387.662 177.165Z" fill="black"/>
<path d="M441.76 187.871C436.936 185.108 433.49 181.309 430.733 176.475C427.977 171.64 426.943 165.769 426.943 159.553V134.689C426.943 128.128 428.321 122.603 430.733 117.768C433.146 112.933 436.936 109.135 441.76 106.372C446.585 103.609 451.753 102.228 457.956 102.228C464.159 102.228 469.672 103.609 474.152 106.372C478.631 109.135 482.422 112.933 485.179 117.768C487.935 122.603 488.969 128.473 488.969 134.689V159.553C488.969 166.115 487.591 171.64 485.179 176.475C482.767 181.309 478.976 185.108 474.152 187.871C469.328 190.634 464.159 192.015 457.956 192.015C451.753 192.015 446.585 190.634 441.76 187.871ZM467.605 177.165C470.361 175.439 472.429 173.367 474.152 170.259C475.875 167.151 476.564 163.697 476.564 159.899V133.999C476.564 130.2 475.875 126.401 474.152 123.639C472.429 120.876 470.361 118.459 467.605 116.732C464.848 115.005 461.747 114.315 457.956 114.315C454.166 114.315 451.064 115.005 448.308 116.732C445.551 118.459 443.483 120.531 441.76 123.639C440.037 126.747 439.348 130.2 439.348 133.999V159.899C439.348 163.697 440.037 167.496 441.76 170.259C443.483 173.021 445.551 175.439 448.308 177.165C451.064 178.892 454.166 179.583 457.956 179.583C461.747 179.583 464.848 178.892 467.605 177.165Z" fill="black"/>
<path d="M508.956 102.913H520.327L563.401 171.289L562.023 173.016V103.258H574.428V190.973H563.057L519.983 123.633L521.361 121.906V190.973H508.956V102.913Z" fill="black"/>
<path d="M637.15 192.012C637.15 192.012 635.083 191.666 631.292 190.63C627.502 189.594 624.056 188.558 620.61 186.832C617.164 185.105 614.407 183.033 611.306 180.616L618.887 171.292C622.333 174.054 625.779 176.472 629.914 177.853C634.049 179.234 638.184 179.925 643.009 179.925C649.556 179.925 654.38 178.889 657.826 176.472C661.272 174.054 662.995 170.601 662.995 166.457C662.995 163.349 662.306 160.931 660.583 159.205C658.86 157.478 656.792 156.097 654.38 155.061C651.968 154.025 648.522 153.334 644.731 152.643H644.387H644.042L643.009 152.298C637.15 151.262 632.326 150.226 628.536 148.845C624.745 147.463 621.644 145.391 618.887 141.938C616.13 138.485 615.097 133.65 615.097 127.434C615.097 121.909 616.475 117.419 618.887 113.275C621.299 109.131 624.745 106.369 629.57 104.297C634.394 102.225 639.907 101.189 646.454 101.189C649.556 101.189 652.657 101.534 655.758 102.225C658.86 102.915 661.961 103.951 664.718 105.333C667.474 106.714 670.576 108.441 673.332 110.513L666.441 120.182C662.995 117.765 659.893 115.693 656.448 114.657C653.002 113.621 649.9 112.93 646.454 112.93C640.596 112.93 635.772 113.966 632.326 116.383C628.88 118.801 627.157 122.254 627.157 126.743C627.157 129.851 627.847 132.269 629.57 133.995C631.292 135.722 633.36 137.103 636.117 137.794C638.873 138.485 642.319 139.521 646.799 140.211H647.144H647.488C647.833 140.211 647.833 140.211 648.177 140.211C648.522 140.211 648.522 140.211 648.866 140.211C654.035 141.247 658.515 142.629 662.306 144.01C666.096 145.391 668.853 147.809 671.265 151.262C673.677 154.716 674.711 159.205 674.711 165.076C674.711 170.601 673.333 175.09 670.92 178.889C668.508 182.688 664.718 185.796 659.893 187.522C655.069 189.249 649.211 190.63 642.319 190.63C639.218 192.012 637.15 192.012 637.15 192.012Z" fill="black"/>
<path d="M693.314 102.913H705.719V190.973H693.314V102.913ZM700.895 141.59H749.827V153.332H700.895V141.59ZM743.28 102.913H755.685V190.973H743.28V102.913Z" fill="black"/>
<path d="M801.512 102.913H812.195L844.586 191.318H831.147L806.681 120.18L782.215 191.318H768.776L801.512 102.913ZM783.938 159.893H830.458V171.634H784.283V159.893H783.938Z" fill="black"/>
<path d="M858.028 102.571H870.433V190.976H858.028V102.571ZM863.197 141.939H893.176C895.588 141.939 897.656 141.248 899.379 140.212C901.102 139.176 902.48 137.449 903.514 135.377C904.548 133.305 904.892 130.888 904.892 128.125C904.892 125.363 904.548 122.945 903.514 120.873C902.48 118.801 901.102 117.075 899.379 116.039C897.656 115.003 895.588 114.312 893.176 114.312H863.197V102.571H892.832C898.001 102.571 902.48 103.607 906.271 105.679C910.061 107.751 913.163 110.859 915.23 114.657C917.298 118.456 918.331 122.945 918.331 128.125C918.331 133.305 917.298 137.795 915.23 141.594C913.163 145.392 910.061 148.5 906.271 150.572C902.48 152.644 898.001 153.68 892.832 153.68H863.197V141.939ZM887.318 150.917L899.723 148.155L922.122 190.976H907.304L887.318 150.917Z" fill="black"/>
<path d="M938.663 102.913H951.068V190.973H938.663V102.913ZM946.933 179.232H966.919C973.467 179.232 978.291 177.505 982.081 174.052C985.872 170.598 987.595 165.764 987.595 159.893V133.993C987.595 127.777 985.872 122.942 982.081 119.834C978.291 116.726 973.467 114.654 966.919 114.654H946.933V102.913H966.575C973.811 102.913 979.669 104.294 984.838 106.712C990.007 109.129 993.797 112.928 996.21 117.417C998.622 121.906 1000 127.777 1000 134.684V159.548C1000 166.109 998.622 171.98 996.21 176.814C993.797 181.649 989.662 185.102 984.838 187.52C980.014 189.937 973.811 191.318 966.575 191.318H946.933V179.232Z" fill="black"/>
</svg>
