<svg width="29" height="29" viewBox="0 0 29 29" fill="none" xmlns="http://www.w3.org/2000/svg">
<path d="M14.5 29C6.45909 29 0 22.5409 0 14.5C0 6.45909 6.45909 0 14.5 0C22.5409 0 29 6.45909 29 14.5C29 22.5409 22.5409 29 14.5 29ZM14.5 2.63636C7.90909 2.63636 2.63636 7.90909 2.63636 14.5C2.63636 21.0909 7.90909 26.3636 14.5 26.3636C21.0909 26.3636 26.3636 21.0909 26.3636 14.5C26.3636 7.90909 21.0909 2.63636 14.5 2.63636Z" fill="#C63535"/>
<path d="M14.5 15.8182C13.7091 15.8182 13.1818 15.2909 13.1818 14.5V9.22727C13.1818 8.43636 13.7091 7.90909 14.5 7.90909C15.2909 7.90909 15.8182 8.43636 15.8182 9.22727V14.5C15.8182 15.2909 15.2909 15.8182 14.5 15.8182Z" fill="#C63535"/>
<path d="M14.5 21.0909C14.1045 21.0909 13.8409 20.9591 13.5773 20.6955C13.3136 20.4318 13.1818 20.1682 13.1818 19.7727C13.1818 19.6409 13.1818 19.3773 13.3136 19.2455C13.4455 19.1136 13.4455 18.9818 13.5773 18.85C13.9727 18.4545 14.5 18.3227 15.0273 18.5864C15.1591 18.5864 15.1591 18.5864 15.2909 18.7182C15.2909 18.7182 15.4227 18.85 15.5545 18.85C15.6864 18.9818 15.8182 19.1136 15.8182 19.2455C15.8182 19.3773 15.8182 19.6409 15.8182 19.7727C15.8182 19.9045 15.8182 20.1682 15.6864 20.3C15.5545 20.4318 15.5545 20.5636 15.4227 20.6955C15.1591 20.9591 14.8955 21.0909 14.5 21.0909Z" fill="#C63535"/>
</svg>
