<svg width="61" height="61" viewBox="0 0 61 61" fill="none" xmlns="http://www.w3.org/2000/svg">
<rect width="61" height="61" fill="#3B3F5F"/>
<path d="M42.9483 17.8042L31.0579 6L19 17.8042V41.8042L31.0579 54L42.9483 41.8042V17.8042ZM31.0579 8.34964L40.8828 18.0839L31.0021 27.7622L21.1771 18.0839L31.0579 8.34964ZM31.0021 32.4056L33.3467 34.8112L30.9462 40.014L28.6017 34.8112L31.0021 32.4056ZM30.8904 30.0559L27.8759 33.1888L22.796 22.0559L30.8904 30.0559ZM26.592 34.4196L20.6747 40.4615V21.4965L26.592 34.4196ZM31.0021 51.6503L21.5679 41.972L27.3735 36.0979L30.2205 42.2517H31.8394L34.6864 36.042L40.4921 41.972L31.0021 51.6503ZM41.2736 40.4615L35.3563 34.4196L41.2736 21.4405V40.4615ZM34.1282 33.1329L31.0579 30L39.2081 22.0559L34.1282 33.1329Z" fill="#2BC2F9"/>
</svg>
