<svg width="40" height="40" viewBox="0 0 40 40" fill="none" xmlns="http://www.w3.org/2000/svg">
<circle cx="20" cy="20" r="20" fill="#2BC2F9"/>
<path d="M14.5 28L25.5 19" stroke="white" stroke-linecap="round"/>
<path d="M22.3717 17.4581C23.9717 16.7723 24.6575 15.1721 24.6575 13.3434C24.6575 10.8288 22.6003 9 20.3145 9C17.8001 9 15.9715 11.0574 15.9715 13.3434C15.9715 15.1721 16.4287 16.7723 18.2573 17.4581C15.0572 17.4581 13 20.2012 13 23.4016C13 26.6019 13.6857 29.3451 16.8858 29.3451H23.7432C26.9433 29.3451 27.629 26.6019 27.629 23.4016C27.629 19.9726 25.5718 17.4581 22.3717 17.4581Z" stroke="white" stroke-miterlimit="10" stroke-linecap="round" stroke-linejoin="round"/>
</svg>
