<svg width="40" height="40" viewBox="0 0 40 40" fill="none" xmlns="http://www.w3.org/2000/svg">
<circle cx="20" cy="20" r="20" fill="#2BC2F9"/>
<path d="M10.2373 14.0266H8V25.5908C8 26.6949 8.87167 27.5666 9.97578 27.5666C11.0799 27.5666 11.9516 26.6949 11.9516 25.5908L11.9806 9H29.3269V20.3317" stroke="white" stroke-miterlimit="10" stroke-linecap="round" stroke-linejoin="round"/>
<path d="M15.2349 12.8936H25.9274" stroke="white" stroke-miterlimit="10" stroke-linecap="round" stroke-linejoin="round"/>
<path d="M15.2349 15.0439H25.9274" stroke="white" stroke-miterlimit="10" stroke-linecap="round" stroke-linejoin="round"/>
<path d="M15.2349 18.9082H25.9274" stroke="white" stroke-miterlimit="10" stroke-linecap="round" stroke-linejoin="round"/>
<path d="M15.2349 21.0293H22.4988" stroke="white" stroke-miterlimit="10" stroke-linecap="round" stroke-linejoin="round"/>
<path d="M15.2349 23.1211H20.6392" stroke="white" stroke-miterlimit="10" stroke-linecap="round" stroke-linejoin="round"/>
<path d="M15.2349 25.2422H20.2324" stroke="white" stroke-miterlimit="10" stroke-linecap="round" stroke-linejoin="round"/>
<path d="M10.2373 27.5371H20.1453" stroke="white" stroke-miterlimit="10" stroke-linecap="round" stroke-linejoin="round"/>
<path d="M25.7432 28.998C25.7497 28.6107 25.7936 28.3047 25.875 28.0801C25.9564 27.8555 26.1224 27.6064 26.373 27.333L27.0127 26.6738C27.2861 26.3646 27.4229 26.0326 27.4229 25.6777C27.4229 25.3359 27.3333 25.069 27.1543 24.877C26.9753 24.6816 26.7148 24.584 26.373 24.584C26.041 24.584 25.7741 24.6719 25.5723 24.8477C25.3704 25.0234 25.2695 25.2594 25.2695 25.5557H24.3662C24.3727 25.0283 24.5599 24.6035 24.9277 24.2812C25.2988 23.9557 25.7806 23.793 26.373 23.793C26.9883 23.793 27.4668 23.959 27.8086 24.291C28.1536 24.6198 28.3262 25.0723 28.3262 25.6484C28.3262 26.2181 28.0625 26.7796 27.5352 27.333L27.0029 27.8604C26.7653 28.124 26.6465 28.5033 26.6465 28.998H25.7432ZM25.7041 30.5459C25.7041 30.3994 25.748 30.2773 25.8359 30.1797C25.9271 30.0788 26.0605 30.0283 26.2363 30.0283C26.4121 30.0283 26.5456 30.0788 26.6367 30.1797C26.7279 30.2773 26.7734 30.3994 26.7734 30.5459C26.7734 30.6924 26.7279 30.8145 26.6367 30.9121C26.5456 31.0065 26.4121 31.0537 26.2363 31.0537C26.0605 31.0537 25.9271 31.0065 25.8359 30.9121C25.748 30.8145 25.7041 30.6924 25.7041 30.5459Z" fill="white"/>
</svg>
