<svg width="40" height="40" viewBox="0 0 40 40" fill="none" xmlns="http://www.w3.org/2000/svg">
<circle cx="20" cy="20" r="20" fill="#2BC2F9"/>
<path d="M15.1355 19.4197C15.8855 19.0961 16.2069 18.3411 16.2069 17.4782C16.2069 16.2917 15.2427 15.4287 14.1712 15.4287C12.9927 15.4287 12.1355 16.3995 12.1355 17.4782C12.1355 18.3411 12.3498 19.0961 13.207 19.4197C11.7069 19.4197 10.7427 20.7141 10.7427 22.2242C10.7427 23.7343 11.0641 25.0287 12.5641 25.0287H15.7784C17.2784 25.0287 17.5998 23.7343 17.5998 22.2242C17.5998 20.6062 16.6355 19.4197 15.1355 19.4197Z" stroke="white" stroke-miterlimit="10" stroke-linecap="round" stroke-linejoin="round"/>
<path d="M20 17.417H29.2571" stroke="white" stroke-miterlimit="10"/>
<path d="M20 20.3662H29.2571" stroke="white" stroke-miterlimit="10"/>
<path d="M20 23.2461H29.2571" stroke="white" stroke-miterlimit="10"/>
<path d="M30.6286 28.6628H9.37143C8.61714 28.6628 8 28.0457 8 27.2914V13.3714C8 12.6171 8.61714 12 9.37143 12H30.6286C31.3829 12 32 12.6171 32 13.3714V27.2914C32 28.0457 31.3829 28.6628 30.6286 28.6628Z" stroke="white" stroke-miterlimit="10"/>
</svg>
