<svg width="40" height="40" viewBox="0 0 40 40" fill="none" xmlns="http://www.w3.org/2000/svg">
<circle cx="20" cy="20" r="20" fill="#2BC2F9"/>
<path d="M26.2945 20.0389C26.375 19.7925 26.2453 19.5259 26.0049 19.4434C25.7645 19.3609 25.5044 19.4939 25.424 19.7403C25.3435 19.9868 25.4732 20.2534 25.7136 20.3358C25.954 20.4183 26.2141 20.2854 26.2945 20.0389Z" fill="white"/>
<path d="M23.3258 19.0223C23.4062 18.7759 23.2766 18.5092 23.0362 18.4268C22.7957 18.3443 22.5357 18.4773 22.4552 18.7237C22.3748 18.9701 22.5045 19.2368 22.7449 19.3192C22.9853 19.4017 23.2454 19.2688 23.3258 19.0223Z" fill="white"/>
<path d="M19.2499 23.8516C19.5942 25.0279 18.7048 26.3808 17.213 26.8513C15.7212 27.3219 14.2294 26.7337 13.8564 25.5573" stroke="white" stroke-miterlimit="10" stroke-linecap="round" stroke-linejoin="round"/>
<path d="M17.3787 22.0448C17.621 21.9682 17.7568 21.7047 17.682 21.4564C17.6073 21.2081 17.3503 21.0689 17.1081 21.1455C16.8658 21.2221 16.73 21.4855 16.8047 21.7338C16.8795 21.9822 17.1364 22.1214 17.3787 22.0448Z" fill="white"/>
<path d="M14.4231 22.9784C14.6654 22.9018 14.8012 22.6383 14.7265 22.39C14.6517 22.1417 14.3948 22.0024 14.1525 22.0791C13.9103 22.1557 13.7745 22.4191 13.8492 22.6674C13.9239 22.9158 14.1809 23.055 14.4231 22.9784Z" fill="white"/>
<path d="M21.5733 12.2056C18.7044 11.2351 18.7618 9 18.7618 9C18.7618 9 16.6389 13.6173 20.311 14.2643C21.0856 14.4113 21.7167 14.5289 22.2044 14.676C22.7782 14.4701 23.3807 14.3525 24.0118 14.3525C23.6962 13.5879 23.0077 12.7056 21.5733 12.2056Z" stroke="white" stroke-miterlimit="10" stroke-linecap="round" stroke-linejoin="round"/>
<path d="M30.8685 15.3812C29.4341 14.8812 28.3726 15.1753 27.6841 15.5871C28.1718 15.9694 28.6021 16.4399 28.9464 16.9693C29.4341 17.1752 30.0079 17.4398 30.6964 17.7928C33.9956 19.5279 34.9997 14.5283 34.9997 14.5283C34.9997 14.5283 33.7374 16.3811 30.8685 15.3812Z" stroke="white" stroke-miterlimit="10" stroke-linecap="round" stroke-linejoin="round"/>
<path d="M28.947 16.9707C28.6027 16.4413 28.1724 15.9707 27.6847 15.5884C27.1683 15.1767 26.5945 14.8532 25.9634 14.6179C25.3322 14.3826 24.6724 14.2944 24.0126 14.3238C23.3814 14.3238 22.779 14.4415 22.2052 14.6473C20.7708 15.1767 19.5372 16.2354 18.8486 17.7353C20.1396 18.4411 21.1724 19.6763 21.6314 21.235C21.6314 21.2644 21.6314 21.2938 21.6601 21.3232L26.2216 22.8819C25.8486 24.0583 24.3281 24.6171 22.8363 24.1171C22.4634 23.9995 22.1478 23.823 21.8609 23.5877C21.8036 24.2642 21.6027 24.9406 21.3445 25.5582C21.6314 25.7346 21.947 25.8523 22.2626 25.9699C25.3036 27.0286 28.6314 25.3229 29.6355 22.2055C30.238 20.3821 29.9224 18.4705 28.947 16.9707Z" stroke="white" stroke-miterlimit="10" stroke-linecap="round" stroke-linejoin="round"/>
<path d="M26.1928 22.881L21.6313 21.3223C21.8609 22.0869 21.9182 22.8516 21.8322 23.5868C22.119 23.7926 22.4346 23.9691 22.8076 24.1161C24.2994 24.6161 25.8199 24.0573 26.1928 22.881Z" stroke="white" stroke-miterlimit="10" stroke-linecap="round" stroke-linejoin="round"/>
<path d="M21.3162 25.557C20.6276 27.0275 19.394 28.2039 17.7588 28.7332C14.6891 29.7038 11.4186 27.9392 10.4719 24.7924C9.89812 22.8808 10.2998 20.9398 11.3899 19.4399C14.5743 17.8518 15.2916 18.2929 15.2916 18.2929C15.2916 18.2929 14.9473 17.7342 14.2301 17.3224C14.2588 17.3224 14.2875 17.293 14.3162 17.293C15.8653 16.7931 17.4719 16.9989 18.8202 17.7636" stroke="white" stroke-miterlimit="10" stroke-linecap="round" stroke-linejoin="round"/>
<path d="M14.2295 17.3229C13.541 16.9111 12.5082 16.6464 11.1025 17.0876C8.2336 17.9993 7 16.1465 7 16.1465C7 16.1465 7.91803 21.1755 11.2459 19.4991C11.3033 19.4697 11.332 19.4403 11.3893 19.4109C14.5738 17.8228 15.291 18.264 15.291 18.264C15.291 18.264 14.9467 17.7346 14.2295 17.3229Z" stroke="white" stroke-miterlimit="10" stroke-linecap="round" stroke-linejoin="round"/>
</svg>
