<svg width="180" height="180" viewBox="0 0 180 180" fill="none" xmlns="http://www.w3.org/2000/svg">
<rect width="180" height="180" fill="black" fill-opacity="0"/>
<rect width="179.318" height="147.798" fill="black" fill-opacity="0" transform="translate(0.681641 0.825195)"/>
<path d="M158.051 148.624C171.717 132.936 180 112.431 180 90.1375C180 40.7338 139.829 0.825549 90.4098 0.825549C40.8522 0.687934 0.681641 40.7338 0.681641 90.1375C0.681641 112.569 8.96423 132.936 22.6305 148.624C29.9468 144.22 39.7479 141.743 48.5827 139.541C56.3131 137.615 63.3533 135.963 67.4946 133.211C75.7772 127.569 75.087 120.688 73.4305 116.422C70.1174 113.945 67.0805 110.229 64.4577 104.862C64.0435 103.899 63.4914 102.936 63.0772 101.972C62.5251 100.871 62.1109 99.7705 61.5588 98.532C57.9696 99.0824 53.4142 94.5411 51.4816 88.2109C50.1011 83.6696 50.2392 79.2659 51.7577 76.7889C46.0979 75.6879 44.7175 67.8439 44.7175 67.8439C44.7175 67.8439 48.1685 68.1191 48.9968 67.2935C51.0675 65.2292 50.7914 61.5136 50.5153 57.6604C50.3772 56.2843 50.2392 54.7705 50.3772 53.3944C50.5153 44.587 52.3098 35.3668 61.1446 28.3485C71.2218 20.3668 81.9892 26.8347 87.0968 30.9632C89.8576 29.7246 95.7935 28.7613 104.49 31.1008C117.19 34.6788 129.2 42.2476 130.718 61.376C131.271 69.6329 130.028 71.2843 128.234 73.4861C127.82 73.899 127.543 74.4494 127.129 74.8623C130.304 76.376 131.271 82.0182 129.338 88.2109C127.267 94.5411 122.85 99.0824 119.261 98.532C118.295 100.871 117.328 102.936 116.5 104.862C113.877 110.229 111.116 113.945 107.803 116.422C106.147 120.826 105.457 127.706 113.739 133.211C117.88 135.963 124.783 137.752 132.513 139.541C141.21 141.743 150.873 144.22 158.051 148.624Z" fill="white" fill-opacity="0.8"/>
</svg>
